<?xml version="1.0" encoding="UTF-8"?>
<!DOCTYPE svg PUBLIC "-//W3C//DTD SVG 1.1//EN" "http://www.w3.org/Graphics/SVG/1.1/DTD/svg11.dtd">
<!-- Creator: CorelDRAW 2023 -->
<svg xmlns="http://www.w3.org/2000/svg" xml:space="preserve" width="15in" height="11in" version="1.1" style="shape-rendering:geometricPrecision; text-rendering:geometricPrecision; image-rendering:optimizeQuality; fill-rule:evenodd; clip-rule:evenodd"
viewBox="0 0 15000 11000"
 xmlns:xlink="http://www.w3.org/1999/xlink"
 xmlns:xodm="http://www.corel.com/coreldraw/odm/2003">
 <defs>
  <style type="text/css">
   <![CDATA[
    .fil1 {fill:#373435}
    .fil0 {fill:#373435;fill-rule:nonzero}
   ]]>
  </style>
 </defs>
 <g id="Layer_x0020_1">
  <metadata id="CorelCorpID_0Corel-Layer"/>
  <path class="fil0" d="M4537.01 10061.36l394.55 0c0,6.74 0.23,16.28 0.69,28.6 1.41,32.32 2.1,53.94 2.1,65.33 0,140.2 -40.22,249.24 -120.43,326.65 -80.46,77.67 -193.68,116.48 -339.68,116.48 -81.85,0 -154.62,-12.08 -218.56,-36.04 -63.92,-24.17 -120.2,-60.43 -168.09,-109.04 -47.19,-48.12 -83.46,-104.62 -108.57,-169.72 -25.34,-64.85 -37.89,-134.38 -37.89,-208.3 0,-75.33 12.78,-144.85 38.35,-208.56 25.81,-63.46 63.72,-119.5 114.17,-168.08 48.58,-47.66 105.55,-83.93 170.88,-109.04 65.33,-24.88 135.3,-37.42 209.71,-37.42 78.33,0 148.8,14.41 210.63,42.99 61.84,28.6 117.17,72.31 165.78,131.38l-118.12 89.26c-33.7,-39.04 -71.61,-68.1 -113.91,-87.19 -42.09,-19.06 -89.29,-28.6 -141.59,-28.6 -108.11,0 -196.24,34.65 -264.58,103.93 -68.35,69.28 -102.55,159.26 -102.55,269.94 0,112.76 34.19,204.12 102.55,274.09 68.33,70.22 156.93,105.31 265.96,105.31 92.52,0 165.54,-21.62 218.54,-64.63 53.25,-43.22 79.74,-101.83 79.74,-176.45l0 -14.18 -239.7 0 0 -136.71zm804.82 -61.38l29.52 0c85.8,0 142.76,-10 170.9,-29.98 28.11,-20.01 42.3,-55.33 42.3,-106.24 0,-54.89 -15.11,-93.46 -45.32,-116.01 -30.24,-22.57 -86.26,-33.73 -167.87,-33.73l-29.52 0 0 285.97zm-9.75 125.56l0 446.38 -152.05 0 0 -997.39 225.98 0c66.26,0 117.63,4.41 154.39,13 36.5,8.62 67.64,22.8 93.44,42.78 30.93,24.19 54.63,55.33 71.61,93.47 16.75,38.12 25.11,79.74 25.11,125.32 0,79.74 -19.29,142.28 -57.89,187.61 -38.6,45.11 -95.55,72.31 -170.88,81.39l343.17 453.82 -182.75 0 -331.98 -446.38 -18.14 0zm915.04 54.4l278.04 0 -102.29 -227.38c-5.8,-14.42 -12.08,-31.17 -18.37,-49.99 -6.28,-18.83 -12.78,-39.76 -19.06,-63 -5.36,21.85 -11.16,42.07 -17.44,60.92 -6.05,18.83 -12.31,36.27 -18.59,52.07l-102.29 227.38zm448.23 391.98l-112.98 -256.68 -395.24 0 -115.78 256.68 -170.19 0 482.88 -1036.45 482.44 1036.45 -171.13 0zm501.9 -580.3l41.63 0c89.98,0 149.95,-9.77 179.94,-29.29 30.01,-19.54 44.89,-53.94 44.89,-103.47 0,-52.99 -16.06,-90.44 -48.15,-112.29 -31.83,-21.63 -90.9,-32.55 -176.68,-32.55l-41.63 0 0 277.61zm-9.75 132.51l0 447.79 -152.05 0 0 -997.39 245.03 0c72.77,0 126.25,3.95 160.67,11.85 34.17,7.9 64.15,21.16 89.72,39.3 31.39,23.01 55.81,54.4 73.72,93.47 17.67,39.27 26.5,82.52 26.5,129.71 0,47.45 -8.82,90.93 -26.5,130.91 -17.91,39.99 -42.32,71.36 -73.72,93.91 -25.57,18.13 -55.56,31.17 -89.72,38.83 -34.42,7.67 -87.9,11.62 -160.67,11.62l-31.85 0 -61.13 0zm665.57 447.79l0 -997.39 161.8 0 0 368.26 491.04 0 0 -368.26 161.8 0 0 997.39 -161.8 0 0 -484.06 -491.04 0 0 484.06 -161.8 0zm1918.92 -754.67c-45.79,-39.07 -94.39,-68.36 -145.31,-87.9 -51.15,-19.52 -104.85,-29.29 -161.11,-29.29 -108.81,0 -197.4,34.88 -265.73,104.85 -68.35,70 -102.55,160.44 -102.55,271.79 0,107.42 33.24,196.22 99.75,266.22 66.48,69.97 150.41,104.85 251.55,104.85 59.05,0 115.09,-10.46 168.57,-31.39 53.22,-20.93 104.39,-52.3 153.44,-94.62l0 183.22c-43.48,31.37 -90.9,54.87 -142.28,70.2 -51.38,15.57 -106.96,23.24 -166.7,23.24 -76.26,0 -146.72,-12.55 -211.35,-37.43 -64.84,-25.11 -121.58,-61.84 -170.65,-110.43 -48.58,-47.68 -85.78,-103.93 -112.07,-168.57 -26.03,-64.64 -39.04,-133.69 -39.04,-206.69 0,-73.23 13.01,-141.82 39.04,-206 26.29,-64.41 63.94,-120.66 113.48,-169.26 49.5,-49.04 106.24,-86.24 170.19,-111.35 63.92,-25.34 133.2,-37.91 207.61,-37.91 58.58,0 114.39,8.61 167.39,25.57 53.25,17.21 104.63,43.02 154.61,77.67l-8.85 163.21zm1130.09 258.06c0,-50.45 -9.29,-98.34 -27.65,-143.69 -18.39,-45.33 -44.89,-85.78 -79.28,-121.12 -33.73,-35.11 -72.54,-61.84 -116.73,-80.67 -44.4,-18.85 -91.13,-28.37 -139.95,-28.37 -49.07,0 -95.8,9.29 -140.2,27.88 -44.17,18.62 -83.7,45.58 -118.09,81.15 -34.42,34.86 -60.92,75.1 -79.06,120.43 -18.13,45.35 -27.21,93.46 -27.21,144.38 0,50.45 9.08,98.11 27.21,142.97 18.13,44.89 44.63,85.1 79.06,120.45 34.39,35.55 73.69,62.54 117.86,81.13 43.94,18.6 90.91,27.91 140.43,27.91 48.58,0 94.62,-9.31 138.56,-27.91 43.7,-18.59 83.23,-45.58 118.11,-81.13 34.4,-35.35 60.89,-75.56 79.28,-120.68 18.37,-45.32 27.65,-92.75 27.65,-142.74zm168.8 0c0,70.92 -13.26,137.87 -39.76,200.86 -26.75,63.25 -65.33,119.5 -116.24,169.03 -51.15,49.53 -109.04,87.41 -173.67,113.68 -64.41,26.29 -132.07,39.53 -202.74,39.53 -71.84,0 -140.2,-13.24 -205.53,-39.76 -65.1,-26.73 -122.53,-64.38 -172.52,-113.45 -50.91,-49.53 -89.49,-105.55 -115.76,-168.31 -26.29,-62.56 -39.52,-129.74 -39.52,-201.58 0,-71.39 13.24,-138.56 39.52,-201.58 26.27,-63.23 64.85,-119.73 115.76,-169.72 50.94,-49.5 108.58,-87.18 172.98,-112.99 64.41,-25.8 132.76,-38.81 205.07,-38.81 71.61,0 139.48,13 203.89,38.81 64.18,25.81 121.84,63.48 172.52,112.99 50.92,50.45 89.5,107.42 116.24,170.67 26.5,63.46 39.76,130.17 39.76,200.63z"/>
  <path class="fil1" d="M6310.2 1769.73c28.67,17.85 665.08,7.46 692.18,7.46 168.34,0 2027.7,-8.96 2100.14,3.4 -15.5,-14.93 6.38,-2.41 -15.61,-8.83 -27.61,-8.04 -2775.94,-2.03 -2776.7,-2.03l0.16 -854.72 3758.36 0.37 0.3 7520.56 -966.73 -3.39c8.87,8.48 1.5,11.8 49.02,11.8 21.09,0 42.57,-0.62 63.83,-0.65l732.88 0c32.5,0 100.49,5.57 121,-7.76 17.03,-40.89 6.77,-7504.71 -0.3,-7520.56 -1.57,-1.02 -4.16,-3.88 -5.08,-2.28l-3736.9 -3.88c-12.61,2.56 -13.24,3.9 -16.38,5.8 -9.68,27.12 -10.14,825.31 -0.16,854.72z"/>
  <path class="fil1" d="M6310.2 1769.73c0.76,0 2749.1,-6.01 2776.7,2.03 21.99,6.42 0.11,-6.1 15.61,8.83 12.78,341.18 0.51,708.07 0.51,1052.16 0,130.8 8.71,1002.29 -3.83,1053.11l-2696.66 0.44 0 859.13 2697.28 0 2.47 3687.12 966.73 3.39 -0.3 -7520.56 -3758.36 -0.37 -0.16 854.72z"/>
  <polygon class="fil1" points="4847.16,8432.09 4874.19,8433.61 8143.99,8433.35 8171.94,8433.1 8174.25,7575.45 5814.04,7574.96 5813.8,908.04 4847.19,907.76 "/>
  <path class="fil1" d="M4099.26 330.63l27.95 -0.23 14.09 0.05 6708.74 0 3.26 8634.15 -6754.04 0.02 0 -8633.98zm-127.77 8761.78l6984.24 0 25.53 -2.66 -0.14 -8883.66 -25.3 -4.13 -6987.18 0.69 2.84 8889.76z"/>
  <path class="fil1" d="M8357.6 8026.38c-14.67,-109.24 64.85,-217.54 152.4,-260.93 264.58,-131.07 542,194.93 328.89,434.28 -98.28,110.38 -268.97,131.22 -393.07,18.16 -67.13,-61.17 -78.31,-117.65 -88.22,-191.51zm223.99 -396.92c-189.47,25.11 -372.5,214.31 -335.17,435.89 33.27,197.65 205.53,368.6 444.46,333.12 190.68,-28.32 366.27,-210.66 329.77,-437.35 -31.3,-194.53 -204.42,-362.73 -439.06,-331.66z"/>
  <path class="fil0" d="M9355.78 7913.14c-131.06,-110.49 -360.33,-103.54 -519.31,-144.75 -31.9,-8.27 -54.08,-22.02 -32.04,-52.28 22.06,-30.26 115.18,-80.02 95.57,-117.61 -19.59,-37.63 -104.37,20.58 -139.67,39.69 -13.22,2.93 -88.2,47.1 -88.2,47.06 -0.88,-20.28 0.39,-44.68 0,-66.16 -12.94,-96.15 -53.67,32.37 -62.95,39.74 -6.91,5.52 -24.65,-20.17 -31.93,-22.43 -31.56,-9.84 -36.78,42.62 -38.95,60.62 -15.36,-4.74 -15.27,-24.49 -29.2,-30.17 -29.52,-12.04 -16.26,25.37 -25.18,28.69 -6.24,2.33 -23.24,-26.96 -26.27,-31 -25.64,-34.28 -216.85,-331.18 -333.42,-302.05 -28.87,122.32 295.88,319.21 267.05,349.22 -5.87,-8.89 -113.54,-46.32 -158.77,-33.82 -45.26,12.52 -102.78,83.12 -42.65,98.5 60.11,15.43 71.34,3.56 114.3,4.6 42.99,1.02 -43.01,20.42 -15.82,51.31 5.89,6.65 97.9,15.06 60.3,35.28 -4.18,-4.2 -53.43,31.72 -70.57,30.86 -51.79,35.97 -123.5,38.67 -175.06,84.28 -59.58,52.69 35.83,78.01 73.62,73.04 58.95,-13.95 107.28,-97.99 172.75,-83.53 12.98,2.84 -10.86,29.27 5.15,35 33.13,11.92 57.59,-23.44 48.54,23.54 -51.35,38.14 -40.36,62.17 -92.63,95.57 -3.86,-6.54 -62.37,75.77 -8.83,98.53 40.73,17.3 123.43,-78.48 148.5,-105.87 23.84,-4 4.96,162.63 39.71,191.14 19.54,16.03 22.04,-33.45 41.14,-22.06 110.15,318.4 191.12,137.06 77.94,-4.41 18.13,-9.15 -13.03,-38.49 -20.61,-57.34 -0.95,-10.9 -17.23,-51.95 -10.26,-60.27 0.51,-0.63 16.33,17.97 16.15,24.99 0.65,-6.93 8.55,21.07 13.35,16.04 6.63,-7 22.52,0.16 30.77,10.42 0,2.22 52.16,-16.5 53.85,-40.45 4.07,-58.29 -46.09,-163.05 43.18,-110.98 23.38,62.07 246.72,268.04 302.88,166.15 36.5,-80.51 -88.34,-127.38 -111.76,-177.93 -4.87,4.87 -66.99,-63.02 -57.31,-79.38 6.59,-11.11 99.91,8.3 113.2,10.28 0,0.83 32.8,7.67 46.76,8.8 49.9,4.02 100.7,11.46 150.27,19.13 63.2,0 138.22,0 186.73,-45.56 16.17,-17.65 -8.83,-35.3 -10.3,-54.4z"/>
  <path class="fil0" d="M8661.8 7473.53c5.91,-1.48 13.26,2.93 20.61,4.39 8.82,-4.39 10.28,-16.17 16.17,-23.52 2.93,-13.24 -8.82,-16.17 -17.65,-17.65 -7.35,8.85 -20.56,0 -24.99,10.3 10.3,5.89 -5.87,20.58 5.87,26.47z"/>
  <path class="fil0" d="M8501.55 7524.98c11.78,8.82 33.84,5.89 48.54,-1.48 14.69,-5.87 16.17,-27.91 13.24,-39.69 -5.89,-20.58 -23.54,-33.82 -42.65,-35.28 -8.82,-1.48 -13.24,5.87 -20.61,7.35 -16.15,13.22 -22.04,36.76 -14.69,55.86 2.93,5.89 7.34,14.72 16.17,13.24z"/>
  <path class="fil0" d="M7976.67 7517.63c-20.58,-19.13 -54.4,-14.72 -77.94,0 -5.87,11.76 -16.15,22.06 -17.63,36.75 1.48,7.35 2.93,7.35 7.37,13.24 -10.3,25 20.58,32.34 32.34,47.06 16.17,-2.96 47.06,11.76 58.8,-11.76 4.43,-10.3 10.3,-19.13 5.89,-30.89 8.8,-19.13 -1.46,-38.23 -8.83,-54.4z"/>
  <path class="fil0" d="M8767.67 8439.48c-8.83,-1.45 -13.22,10.3 -17.65,14.72l2.93 0c2.98,2.93 4.41,7.35 2.98,11.76 1.43,11.78 8.8,10.28 17.63,13.24 2.93,-7.35 7.35,-4.41 10.28,-13.24 -4.39,-8.83 -5.87,-20.59 -16.17,-26.48z"/>
  <path class="fil0" d="M8461.86 8483.6c-8.8,-8.82 -14.71,7.35 -20.58,10.28 -1.48,-4.39 -5.89,-4.39 -8.82,-7.35 -2.94,2.96 -4.41,5.89 0,10.28l4.41 -4.39 -1.48 23.52c0,10.28 7.37,20.58 20.61,17.65 8.8,-5.89 19.13,-14.72 17.63,-29.41l-11.76 -20.59z"/>
  <path class="fil0" d="M8732.4 8536.52c-14.69,14.72 -36.76,24.97 -29.41,47.04 4.41,16.19 17.65,26.47 32.34,32.37l1.45 -2.96c0,7.35 8.83,1.48 11.78,4.41 8.8,-4.41 14.72,-14.69 20.58,-23.52 -7.37,-20.58 -10.3,-55.88 -36.75,-57.34z"/>
  <path class="fil0" d="M8844.14 8548.28l-1.48 2.96c-7.35,-2.96 -19.11,-2.96 -26.45,-4.44 -4.41,4.44 1.45,11.78 8.82,13.24l1.46 -1.46c2.96,-1.48 2.96,1.46 4.41,1.46 -13.24,5.89 -2.93,19.13 -2.93,27.95 7.35,5.87 16.17,11.76 24.97,7.34 5.89,-10.3 16.19,-20.58 14.72,-35.3 -2.93,-11.76 -16.17,-8.8 -23.52,-11.76z"/>
  <path class="fil0" d="M11409.19 10018.16c-151.04,-127.33 -415.22,-119.31 -598.43,-166.81 -36.76,-9.52 -62.3,-25.34 -36.89,-60.22 25.41,-34.86 132.69,-92.2 110.1,-135.54 -22.57,-43.33 -120.26,23.72 -160.94,45.74 -15.22,3.37 -101.65,54.26 -101.65,54.22 -0.99,-23.38 0.46,-51.47 0,-76.24 -14.9,-110.77 -61.81,37.31 -72.51,45.79 -7.97,6.35 -28.41,-23.24 -36.8,-25.85 -36.36,-11.34 -42.37,49.11 -44.89,69.83 -17.7,-5.43 -17.6,-28.2 -33.64,-34.74 -34.03,-13.86 -18.73,29.22 -29.01,33.06 -7.21,2.7 -26.78,-31.07 -30.26,-35.74 -29.57,-39.5 -249.89,-381.61 -384.22,-348.04 -33.29,140.94 340.95,367.81 307.73,402.42 -6.77,-10.23 -130.82,-53.36 -182.96,-38.97 -52.14,14.42 -118.42,95.76 -49.16,113.52 69.28,17.76 82.22,4.09 131.74,5.27 49.53,1.18 -49.57,23.54 -18.25,59.14 6.79,7.67 112.82,17.35 69.49,40.63 -4.83,-4.83 -61.59,36.57 -81.32,35.58 -59.69,41.46 -142.32,44.56 -201.74,97.09 -68.66,60.74 41.3,89.91 84.85,84.2 67.92,-16.1 123.61,-112.94 199.06,-96.28 14.94,3.28 -12.52,33.75 5.91,40.35 38.19,13.72 66.37,-27.03 55.93,27.1 -59.16,43.96 -46.48,71.66 -106.75,110.12 -4.44,-7.51 -71.85,87.32 -10.17,113.54 46.94,19.94 142.23,-90.42 171.11,-122 27.49,-4.62 5.73,187.39 45.76,220.24 22.55,18.5 25.41,-38.53 47.43,-25.41 126.92,366.89 220.22,157.94 89.82,-5.08 20.88,-10.56 -15.04,-44.35 -23.75,-66.09 -1.09,-12.55 -19.87,-59.83 -11.83,-69.44 0.6,-0.72 18.83,20.72 18.62,28.81 0.74,-7.97 9.84,24.3 15.39,18.48 7.65,-8.08 25.94,0.19 35.44,12.02 0,2.54 60.11,-19.01 62.05,-46.62 4.71,-67.16 -53.09,-187.88 49.76,-127.89 26.96,71.52 284.31,308.89 349.04,191.46 42.04,-92.78 -101.83,-146.79 -128.79,-205.02 -5.61,5.61 -77.23,-72.63 -66.05,-91.48 7.6,-12.82 115.13,9.56 130.43,11.85 0,0.97 37.81,8.82 53.89,10.12 57.48,4.64 116.02,13.24 173.17,22.06 72.81,0 159.24,0 215.14,-52.49 18.64,-20.35 -10.17,-40.68 -11.85,-62.7z"/>
  <path class="fil0" d="M10609.5 9511.57c6.8,-1.69 15.27,3.4 23.73,5.08 10.16,-5.08 11.85,-18.64 18.64,-27.12 3.39,-15.24 -10.17,-18.62 -20.33,-20.33 -8.48,10.19 -23.7,0 -28.81,11.87 11.87,6.77 -6.77,23.72 6.77,30.49z"/>
  <path class="fil0" d="M10424.83 9570.88c13.58,10.16 39,6.77 55.93,-1.71 16.93,-6.77 18.62,-32.18 15.25,-45.74 -6.77,-23.72 -27.1,-38.95 -49.14,-40.66 -10.17,-1.69 -15.27,6.77 -23.72,8.48 -18.62,15.22 -25.41,42.34 -16.96,64.38 3.4,6.77 8.48,16.93 18.64,15.25z"/>
  <path class="fil0" d="M9820 9562.4c-23.72,-22.04 -62.7,-16.96 -89.82,0 -6.74,13.56 -18.59,25.41 -20.3,42.37 1.71,8.46 3.37,8.46 8.48,15.22 -11.85,28.83 23.72,37.29 37.26,54.24 18.64,-3.4 54.24,13.54 67.75,-13.56 5.11,-11.85 11.9,-22.04 6.81,-35.57 10.14,-22.04 -1.71,-44.06 -10.19,-62.7z"/>
  <path class="fil0" d="M10731.47 10624.68c-10.14,-1.69 -15.2,11.85 -20.31,16.93l3.37 0c3.42,3.4 5.08,8.48 3.42,13.56 1.67,13.56 10.14,11.85 20.33,15.24 3.37,-8.48 8.45,-5.06 11.83,-15.24 -5.06,-10.17 -6.74,-23.72 -18.64,-30.5z"/>
  <path class="fil0" d="M10379.09 10675.5c-10.14,-10.14 -16.93,8.46 -23.7,11.85 -1.71,-5.06 -6.79,-5.06 -10.19,-8.45 -3.37,3.39 -5.08,6.79 0,11.85l5.11 -5.06 -1.71 27.1c0,11.85 8.48,23.72 23.72,20.33 10.17,-6.79 22.04,-16.93 20.33,-33.89l-13.56 -23.72z"/>
  <path class="fil0" d="M10690.86 10736.51c-16.95,16.93 -42.39,28.76 -33.91,54.17 5.08,18.67 20.33,30.52 37.26,37.29l1.69 -3.37c0,8.46 10.19,1.69 13.58,5.08 10.14,-5.08 16.93,-16.93 23.7,-27.12 -8.48,-23.7 -11.85,-64.38 -42.32,-66.04z"/>
  <path class="fil0" d="M10819.6 10750.05l-1.71 3.4c-8.48,-3.4 -22.02,-3.4 -30.5,-5.11 -5.08,5.11 1.71,13.58 10.17,15.25l1.71 -1.67c3.37,-1.71 3.37,1.67 5.08,1.67 -15.24,6.79 -3.39,22.04 -3.39,32.2 8.45,6.77 18.64,13.56 28.78,8.48 6.79,-11.85 18.67,-23.72 16.96,-40.68 -3.4,-13.54 -18.64,-10.14 -27.1,-13.54z"/>
  <polygon class="fil0" points="11300.14,10406.62 11300.14,10444.44 11242.27,10444.44 11242.27,10612.39 11194.57,10612.39 11194.57,10444.44 11136.7,10444.44 11136.7,10406.62 "/>
  <path id="_1" class="fil0" d="M11425.04 10518.25c1.88,3.58 3.72,7.34 5.46,11.2 1.74,3.86 3.39,7.81 4.98,11.86 1.6,-4.14 3.3,-8.19 5.08,-12.09 1.79,-3.91 3.62,-7.72 5.5,-11.39l52.78 -104.16c0.94,-1.79 1.93,-3.15 2.92,-4.14 0.99,-0.98 2.07,-1.74 3.29,-2.21 1.22,-0.47 2.63,-0.7 4.19,-0.7 1.55,0 3.34,0 5.41,0l36.41 0 0 205.77 -42.06 0 0 -118.41c0,-5.74 0.28,-11.95 0.85,-18.63l-54.48 105.8c-1.69,3.29 -3.95,5.78 -6.82,7.48 -2.87,1.69 -6.16,2.54 -9.83,2.54l-6.49 0c-3.67,0 -6.92,-0.85 -9.79,-2.54 -2.87,-1.7 -5.17,-4.19 -6.87,-7.48l-54.76 -105.94c0.37,3.29 0.66,6.59 0.85,9.83 0.19,3.25 0.28,6.21 0.28,8.94l0 118.41 -42.06 0 0 -205.77 36.41 0c2.07,0 3.9,0 5.46,0 1.55,0 2.92,0.23 4.14,0.7 1.22,0.47 2.35,1.22 3.34,2.21 0.99,0.99 1.93,2.35 2.87,4.14l52.93 104.58z"/>
 </g>
</svg>
